<svg width="18" height="20" viewBox="0 0 18 20" fill="none" xmlns="http://www.w3.org/2000/svg">
  <path d="M17.3463 8.45507L9.58898 1.31832C9.3368 1.08631 9.00471 0.960744 8.66211 0.967879C8.31951 0.975013 7.99293 1.11429 7.75063 1.3566L0.616133 8.49113L0.25 8.85722V19.375H7.125V12.8125H10.875V19.375H17.75V8.82648L17.3463 8.45507ZM8.68898 2.21761C8.7 2.21761 8.6932 2.22 8.68848 2.22464C8.68359 2.22 8.67797 2.21761 8.68898 2.21761ZM16.5 18.125H12.125V12.8125C12.125 12.481 11.9933 12.163 11.7589 11.9286C11.5245 11.6942 11.2065 11.5625 10.875 11.5625H7.125C6.79348 11.5625 6.47554 11.6942 6.24112 11.9286C6.0067 12.163 5.875 12.481 5.875 12.8125V18.125H1.5V9.375L8.68898 2.24046C8.68949 2.24 8.68953 2.23957 8.68992 2.2391L16.5 9.375V18.125Z" />
</svg>
