<?xml version="1.0" encoding="UTF-8" standalone="no"?><!-- Generator: Gravit.io --><svg xmlns="http://www.w3.org/2000/svg" xmlns:xlink="http://www.w3.org/1999/xlink" style="isolation:isolate" viewBox="0 0 1000 1000" width="1000pt" height="1000pt"><defs><clipPath id="_clipPath_UmAKn0RzHpGhe2hQvi4ryvYtZCFq9SMx"><rect width="1000" height="1000"/></clipPath></defs><g clip-path="url(#_clipPath_UmAKn0RzHpGhe2hQvi4ryvYtZCFq9SMx)"><g><path d=" M 196.172 333.02 C 196.818 328.007 195.59 322.701 192.683 318.511 C 191.516 316.829 190.082 315.329 188.469 314.041 C 186.281 314.301 184.478 315.98 184.227 318.199 L 182.704 331.676 C 186.989 333.199 191.661 333.704 196.172 333.02 Z " fill="rgb(243,155,155)"/><path d=" M 244.148 397.102 L 230.112 391.107 L 226.049 390.11 L 230.618 392.158 C 234.2 393.761 236.162 397.755 235.311 401.715 L 233.402 410.593 C 232.686 413.921 230.125 416.518 226.882 417.2 L 221.374 418.36 C 224.028 419.562 225.345 422.644 224.429 425.504 L 221.5 434.656 C 220.762 436.958 218.736 438.579 216.395 438.739 L 212.174 439.027 L 212.174 439.027 C 214.686 440.321 215.783 443.402 214.694 446.099 L 211.928 452.945 C 210.997 455.251 208.707 456.663 206.31 456.407 L 201.83 455.93 C 203.867 457.275 204.485 460.055 203.226 462.221 L 199.68 468.324 C 199.378 468.846 198.981 469.285 198.529 469.643 L 209.348 470.796 C 211.111 470.985 212.826 470.154 213.731 468.673 L 217.235 462.944 C 218.478 460.912 217.842 458.288 215.799 457.009 L 220.277 457.484 C 222.675 457.742 224.954 456.424 225.87 454.259 L 228.587 447.827 C 229.659 445.29 228.542 442.383 226.024 441.146 L 226.024 441.146 L 230.24 440.902 C 232.58 440.765 234.594 439.251 235.315 437.086 L 238.182 428.482 C 239.078 425.794 237.741 422.881 235.083 421.732 L 240.579 420.674 C 243.814 420.051 246.358 417.619 247.051 414.489 L 248.901 406.136 C 249.725 402.411 247.74 398.636 244.148 397.102 Z " fill="rgb(202,115,115)"/><path d=" M 203.226 462.221 C 204.485 460.055 203.867 457.275 201.83 455.93 L 206.31 456.407 C 208.707 456.663 210.997 455.251 211.928 452.945 L 214.694 446.099 C 215.783 443.402 214.686 440.321 212.174 439.027 L 212.174 439.027 L 216.395 438.739 C 218.736 438.579 220.762 436.958 221.5 434.656 L 224.429 425.504 C 225.345 422.644 224.028 419.562 221.374 418.36 L 226.882 417.2 C 230.125 416.518 232.686 413.921 233.402 410.593 L 235.311 401.715 C 236.162 397.755 234.2 393.761 230.618 392.158 L 226.049 390.11 L 195.243 382.561 C 187.175 380.583 183.999 371.1 189.329 364.891 L 200.782 351.549 C 204.339 347.403 206.302 342.191 206.335 336.795 C 206.342 335.374 206.351 333.857 206.362 332.311 C 206.416 322.942 199.176 315.046 189.589 314.023 C 189.208 313.983 188.835 313.999 188.469 314.041 C 190.082 315.329 191.516 316.829 192.683 318.511 C 195.59 322.701 196.818 328.007 196.172 333.02 C 191.661 333.704 186.989 333.199 182.704 331.676 L 182.672 331.953 L 182.672 331.953 C 178.84 343.384 171.13 353.214 160.802 359.839 L 157.33 362.068 C 153.665 364.419 150.37 367.273 147.55 370.546 C 137.798 381.848 122.877 387.671 107.785 386.061 L -81.618 350.59 L -121 425.278 L 107.725 437.388 C 118.816 438.57 129.07 443.681 136.527 451.745 C 143.98 459.807 154.234 464.92 165.326 466.102 L 198.529 469.643 C 198.981 469.285 199.378 468.846 199.68 468.324 L 203.226 462.221 Z " fill="rgb(221,132,129)"/><path d=" M -56.127 441.011 C -50.854 433.654 -45.064 423.32 -40.426 412.495 C -35.763 401.681 -32.268 390.416 -30.591 381.601 C -34.38 389.779 -38.867 400.543 -43.486 411.254 C -48.08 421.976 -52.805 432.645 -56.127 441.011 L -56.127 441.011 L -56.127 441.011 Z " fill="rgb(206,119,119)"/><path d=" M -35.256 435.81 C -31.791 431.086 -28.202 424.225 -25.843 416.946 C -23.447 409.679 -22.305 402.064 -22.33 396.263 C -23.73 401.908 -25.541 409.187 -27.889 416.316 C -30.204 423.455 -33.048 430.417 -35.256 435.81 L -35.256 435.81 L -35.256 435.81 Z " fill="rgb(206,119,119)"/><path d=" M -18.688 439.123 C -13.489 427.736 -7.44 408.568 -5.176 396.309 C -10.376 407.694 -16.426 426.862 -18.688 439.123 L -18.688 439.123 L -18.688 439.123 Z " fill="rgb(206,119,119)"/><path d=" M 1.607 437.869 C 5.54 431.961 9.554 423.504 12.159 414.612 C 14.805 405.731 16.018 396.493 15.907 389.461 C 14.289 396.321 12.254 405.19 9.658 413.916 C 7.097 422.65 3.98 431.217 1.607 437.869 L 1.607 437.869 L 1.607 437.869 Z " fill="rgb(206,119,119)"/><path d=" M 14.295 442.834 C 19.216 433.014 25.129 416.398 27.505 405.724 C 22.584 415.544 16.671 432.159 14.295 442.834 L 14.295 442.834 L 14.295 442.834 Z " fill="rgb(206,119,119)"/><path d=" M 31.316 436.998 C 34.042 430.433 37.097 419.43 38.139 412.423 C 35.412 418.988 32.358 429.991 31.316 436.998 L 31.316 436.998 L 31.316 436.998 Z " fill="rgb(206,119,119)"/><path d=" M 44.272 439.834 C 48.603 432.794 54.128 420.734 56.613 412.895 C 52.281 419.935 46.756 431.996 44.272 439.834 L 44.272 439.834 L 44.272 439.834 Z " fill="rgb(206,119,119)"/></g><g><path d=" M 330.216 127.395 C 333.607 123.889 335.716 119.116 335.877 114.279 C 335.943 112.335 335.693 110.385 335.186 108.499 C 333.339 107.487 330.973 107.784 329.497 109.358 L 320.545 118.905 C 322.992 122.45 326.323 125.426 330.216 127.395 Z " fill="rgb(250,211,212)"/><path d=" M 330.48 203.361 L 323.051 190.969 L 320.473 187.952 L 322.836 192.058 C 324.69 195.28 323.908 199.445 320.965 202.026 L 314.367 207.813 C 311.893 209.985 308.408 210.569 305.5 209.301 L 300.561 207.145 C 301.923 209.541 301.167 212.647 298.809 214.345 L 291.261 219.78 C 289.361 221.148 286.854 221.276 284.947 220.102 L 281.507 217.988 L 281.507 217.988 C 282.708 220.377 281.782 223.359 279.382 224.835 L 273.291 228.585 C 271.239 229.846 268.649 229.668 266.937 228.143 L 263.738 225.296 C 264.541 227.461 263.418 229.946 261.194 230.919 L 254.925 233.664 C 254.388 233.899 253.827 234.015 253.271 234.042 L 260.997 240.919 C 262.257 242.041 264.065 242.348 265.62 241.707 L 271.642 239.23 C 273.778 238.351 274.796 235.979 273.951 233.859 L 277.149 236.706 C 278.86 238.23 281.389 238.477 283.348 237.314 L 289.164 233.858 C 291.456 232.496 292.267 229.636 291.028 227.289 L 291.028 227.289 L 294.438 229.434 C 296.331 230.622 298.765 230.57 300.574 229.299 L 307.76 224.254 C 310.004 222.677 310.647 219.692 309.248 217.333 L 314.119 219.559 C 316.988 220.87 320.365 220.403 322.708 218.372 L 328.958 212.956 C 331.746 210.541 332.381 206.531 330.48 203.361 Z " fill="rgb(247,176,177)"/><path d=" M 261.194 230.919 C 263.418 229.946 264.541 227.461 263.738 225.296 L 266.937 228.143 C 268.649 229.668 271.239 229.846 273.291 228.585 L 279.382 224.835 C 281.782 223.359 282.708 220.377 281.507 217.988 L 281.507 217.988 L 284.947 220.102 C 286.854 221.276 289.361 221.148 291.261 219.78 L 298.809 214.345 C 301.167 212.647 301.923 209.541 300.561 207.145 L 305.5 209.301 C 308.408 210.569 311.893 209.985 314.367 207.813 L 320.965 202.026 C 323.908 199.445 324.69 195.28 322.836 192.058 L 320.473 187.952 L 300.931 165.081 C 295.814 159.089 298.819 150.02 306.533 148.183 L 323.108 144.233 C 328.257 143.007 332.785 140.074 335.922 135.931 C 336.748 134.841 337.63 133.674 338.529 132.488 C 343.974 125.296 342.91 115.199 336.062 109.104 C 335.791 108.863 335.495 108.667 335.186 108.499 C 335.693 110.385 335.943 112.335 335.877 114.279 C 335.716 119.116 333.607 123.889 330.216 127.395 C 326.323 125.426 322.992 122.45 320.545 118.905 L 320.362 119.101 L 320.362 119.101 C 310.797 125.793 299.151 129.106 287.32 128.498 L 283.342 128.294 C 279.144 128.078 274.942 128.456 270.867 129.416 C 256.787 132.735 241.857 128.966 231.078 119.371 L 219.823 109.351 L 186.129 145.286 L 201.439 158.912 C 209.359 165.964 214.366 175.58 215.498 185.922 C 216.632 196.267 221.637 205.883 229.559 212.934 L 253.271 234.042 C 253.827 234.015 254.388 233.899 254.925 233.664 L 261.194 230.919 Z " fill="rgb(248,191,189)"/><path d=" M 144.592 137.299 L 177.936 154.026 L 225.442 103.357 L 198.72 79.57 L 144.592 137.299 Z " fill="rgb(249,235,215)"/><path d=" M -45.178 -11.043 L 133.829 148.779 L 198.72 79.57 L 19.714 -80.253 L -45.178 -11.043 Z " fill="rgb(0,127,121)"/><path d=" M 104.615 98.394 C 102.217 100.951 98.124 101.109 95.471 98.748 C 92.817 96.385 92.609 92.398 95.006 89.842 C 97.404 87.285 101.497 87.127 104.15 89.49 C 106.804 91.851 107.012 95.838 104.615 98.394 Z " fill="rgb(0,165,142)"/><path d=" M 121.707 113.609 C 119.309 116.166 115.215 116.323 112.562 113.961 C 109.909 111.6 109.701 107.612 112.098 105.056 C 114.495 102.5 118.589 102.342 121.243 104.704 C 123.896 107.066 124.103 111.053 121.707 113.609 Z " fill="rgb(0,165,142)"/><path d=" M 219.823 109.351 L 191.835 150.363 L 186.129 145.286 L 219.823 109.351 Z " fill="rgb(39,44,58)"/></g><g><path d=" M 796.375 319.973 C 795.733 315.176 796.888 310.088 799.652 306.065 C 800.763 304.449 802.13 303.007 803.669 301.766 C 805.767 302.005 807.499 303.607 807.748 305.731 L 809.266 318.632 C 805.169 320.106 800.696 320.61 796.375 319.973 Z " fill="rgb(250,211,212)"/><path d=" M 750.698 381.536 L 764.114 375.737 L 768.004 374.769 L 763.637 376.746 C 760.211 378.297 758.35 382.131 759.183 385.919 L 761.047 394.412 C 761.748 397.597 764.212 400.074 767.321 400.714 L 772.598 401.802 C 770.063 402.966 768.817 405.922 769.704 408.657 L 772.549 417.411 C 773.264 419.613 775.212 421.157 777.453 421.3 L 781.496 421.558 L 781.496 421.558 C 779.097 422.809 778.062 425.762 779.116 428.343 L 781.791 434.887 C 782.692 437.091 784.894 438.435 787.189 438.181 L 791.476 437.705 C 789.532 439.002 788.95 441.667 790.164 443.736 L 793.587 449.568 C 793.88 450.066 794.263 450.483 794.697 450.826 L 784.34 451.973 C 782.651 452.159 781.007 451.371 780.133 449.957 L 776.753 444.483 C 775.553 442.542 776.149 440.028 778.102 438.793 L 773.815 439.268 C 771.523 439.523 769.332 438.272 768.446 436.202 L 765.818 430.05 C 764.779 427.627 765.836 424.837 768.242 423.643 L 768.242 423.643 L 764.205 423.425 C 761.965 423.306 760.028 421.864 759.329 419.793 L 756.547 411.564 C 755.676 408.992 756.943 406.199 759.484 405.087 L 754.218 404.095 C 751.117 403.513 748.669 401.195 747.991 398.199 L 746.185 390.207 C 745.379 386.643 747.265 383.02 750.698 381.536 Z " fill="rgb(247,176,177)"/><path d=" M 790.164 443.736 C 788.95 441.667 789.532 439.002 791.476 437.705 L 787.189 438.181 C 784.894 438.435 782.692 437.091 781.791 434.887 L 779.116 428.343 C 778.062 425.762 779.097 422.809 781.496 421.558 L 781.496 421.558 L 777.453 421.3 C 775.212 421.157 773.264 419.613 772.549 417.411 L 769.704 408.657 C 768.817 405.922 770.063 402.966 772.598 401.802 L 767.321 400.714 C 764.212 400.074 761.748 397.597 761.047 394.412 L 759.183 385.919 C 758.35 382.131 760.211 378.297 763.637 376.746 L 768.004 374.769 L 797.471 367.415 C 805.19 365.489 808.193 356.393 803.062 350.468 L 792.037 337.737 C 788.614 333.781 786.71 328.796 786.658 323.629 C 786.643 322.27 786.627 320.815 786.612 319.334 C 786.52 310.363 793.421 302.771 802.598 301.756 C 802.963 301.714 803.319 301.728 803.669 301.766 C 802.13 303.007 800.763 304.449 799.652 306.065 C 796.888 310.088 795.733 315.176 796.375 319.973 C 800.696 320.61 805.169 320.106 809.266 318.632 L 809.298 318.897 L 809.298 318.897 C 813.016 329.83 820.441 339.213 830.36 345.517 L 833.695 347.637 C 837.214 349.874 840.383 352.595 843.098 355.716 C 852.484 366.503 866.799 372.019 881.246 370.417 L 896.333 368.744 L 902.04 417.297 L 881.52 419.572 C 870.902 420.749 861.107 425.685 854 433.436 C 846.893 441.188 837.097 446.123 826.48 447.301 L 794.697 450.826 C 794.263 450.483 793.88 450.066 793.587 449.568 L 790.164 443.736 Z " fill="rgb(248,191,189)"/><path d=" M 940.367 434.673 L 903.427 429.105 L 895.381 360.646 L 931.199 356.674 L 940.367 434.673 Z " fill="rgb(249,235,215)"/><path d=" M 1182.413 423.199 L 942.189 450.183 L 931.199 356.674 L 1171.423 329.688 L 1182.413 423.199 Z " fill="rgb(50,74,115)"/><path d=" M 995.938 426.038 C 996.344 429.492 999.555 431.973 1003.112 431.578 C 1006.669 431.184 1009.223 428.064 1008.816 424.611 C 1008.412 421.157 1005.198 418.676 1001.643 419.07 C 998.086 419.465 995.531 422.585 995.938 426.038 Z " fill="rgb(44,57,81)"/><path d=" M 973.028 428.578 C 973.434 432.033 976.646 434.512 980.202 434.119 C 983.759 433.724 986.313 430.605 985.908 427.152 C 985.502 423.697 982.29 421.216 978.733 421.611 C 975.176 422.004 972.622 425.124 973.028 428.578 Z " fill="rgb(44,57,81)"/><path d=" M 896.333 368.744 L 894.393 418.144 L 902.04 417.297 L 896.333 368.744 Z " fill="rgb(39,44,58)"/></g><g><path d=" M 274.615 761.974 C 270.339 759.491 265.075 758.495 260.174 759.355 C 258.204 759.702 256.299 760.344 254.516 761.221 C 253.905 763.185 254.727 765.366 256.635 766.436 L 268.214 772.926 C 271.238 769.862 273.495 766.078 274.615 761.974 Z " fill="rgb(250,211,212)"/><path d=" M 350.948 745.804 L 340.129 755.445 L 337.665 758.523 L 341.271 755.421 C 344.101 752.987 348.462 752.856 351.709 755.105 L 358.987 760.149 C 361.717 762.042 363.075 765.225 362.441 768.25 L 361.366 773.384 C 363.472 771.591 366.764 771.656 368.993 773.536 L 376.127 779.556 C 377.923 781.07 378.604 783.421 377.847 785.476 L 376.479 789.182 L 376.479 789.182 C 378.616 787.543 381.819 787.794 383.835 789.761 L 388.949 794.752 C 390.675 796.433 391.065 798.928 389.912 800.87 L 387.755 804.502 C 389.755 803.284 392.503 803.83 393.971 805.736 L 398.117 811.106 C 398.471 811.566 398.714 812.073 398.862 812.596 L 404.072 803.827 C 404.921 802.398 404.832 800.618 403.844 799.275 L 400.02 794.085 C 398.665 792.243 396.054 791.775 394.109 793.022 L 396.266 789.39 C 397.418 787.45 397.109 785 395.507 783.386 L 390.747 778.595 C 388.87 776.707 385.815 776.535 383.729 778.205 L 383.729 778.203 L 385.132 774.519 C 385.909 772.475 385.318 770.176 383.642 768.727 L 376.98 762.972 C 374.897 761.172 371.753 761.19 369.692 763.009 L 370.854 757.923 C 371.537 754.928 370.323 751.824 367.763 750.027 L 360.936 745.236 C 357.89 743.099 353.717 743.336 350.948 745.804 Z " fill="rgb(233,126,113)"/><path d=" M 393.971 805.736 C 392.503 803.83 389.755 803.284 387.755 804.502 L 389.912 800.87 C 391.065 798.928 390.675 796.433 388.949 794.752 L 383.835 789.761 C 381.819 787.794 378.616 787.543 376.479 789.182 L 376.479 789.182 L 377.847 785.476 C 378.604 783.421 377.923 781.07 376.127 779.556 L 368.993 773.536 C 366.764 771.656 363.472 771.591 361.366 773.384 L 362.441 768.25 C 363.075 765.225 361.717 762.042 358.987 760.149 L 351.709 755.105 C 348.462 752.856 344.101 752.987 341.271 755.421 L 337.665 758.523 L 318.984 781.848 C 314.088 787.959 304.304 787.008 300.753 780.079 L 293.119 765.187 C 290.747 760.56 286.798 756.879 281.938 754.773 C 280.659 754.219 279.292 753.626 277.899 753.022 C 269.464 749.366 259.547 752.491 254.929 760.263 C 254.747 760.572 254.617 760.893 254.516 761.221 C 256.299 760.344 258.204 759.702 260.174 759.355 C 265.075 758.495 270.339 759.491 274.615 761.974 C 273.495 766.078 271.238 769.862 268.214 772.926 L 268.451 773.059 L 268.451 773.059 C 277.296 780.725 283.201 791.076 285.203 802.425 L 285.876 806.239 C 286.586 810.267 287.896 814.173 289.762 817.835 C 296.209 830.492 295.718 845.444 288.452 857.675 L 280.862 870.45 L 324.443 894.873 L 334.765 877.497 C 340.105 868.507 348.67 861.745 358.821 858.501 C 368.971 855.259 377.536 848.497 382.876 839.507 L 398.862 812.596 C 398.714 812.073 398.471 811.566 398.117 811.106 L 393.971 805.736 Z " fill="rgb(243,136,121)"/><path d=" M 325.59 935.937 L 335.044 900.81 L 273.594 866.376 L 255.576 896.704 L 325.59 935.937 Z " fill="rgb(254,254,254)"/><path d=" M 218.346 1147 L 339.513 943.74 L 255.576 896.704 L 134.411 1099.963 L 218.346 1147 Z " fill="rgb(240,104,128)"/><path d=" M 280.862 870.45 L 328.289 888.397 L 324.443 894.873 L 280.862 870.45 Z " fill="rgb(39,44,58)"/></g><g><path d=" M 166.009 572.188 C 164.018 568.031 160.439 564.522 156.127 562.659 C 154.393 561.911 152.547 561.429 150.666 561.194 C 149.111 562.417 148.558 564.554 149.467 566.378 L 154.982 577.458 C 159.034 576.621 162.878 574.826 166.009 572.188 Z " fill="rgb(239,92,91)"/><path d=" M 234.715 599.027 L 220.942 600.985 L 217.322 602.122 L 221.851 601.555 C 225.404 601.113 228.895 603.267 230.204 606.713 L 233.142 614.433 C 234.242 617.33 233.561 620.528 231.406 622.571 L 227.744 626.038 C 230.381 625.724 232.923 627.478 233.638 630.106 L 235.927 638.518 C 236.502 640.634 235.747 642.828 234.025 644.046 L 230.921 646.243 L 230.921 646.243 C 233.496 646.066 235.868 647.92 236.368 650.506 L 237.64 657.066 C 238.068 659.275 237.006 661.434 235.035 662.36 L 231.351 664.088 C 233.588 664.171 235.441 666.02 235.548 668.274 L 235.85 674.629 C 235.875 675.173 235.786 675.696 235.617 676.184 L 244.513 672.006 C 245.962 671.326 246.869 669.885 246.829 668.32 L 246.683 662.274 C 246.631 660.128 244.84 658.409 242.631 658.379 L 246.315 656.651 C 248.285 655.724 249.386 653.645 249.015 651.552 L 247.913 645.33 C 247.48 642.879 245.178 641.165 242.628 641.392 L 242.628 641.392 L 245.749 639.23 C 247.482 638.03 248.278 635.923 247.76 633.921 L 245.695 625.96 C 245.05 623.473 242.577 621.857 239.961 622.216 L 243.664 618.83 C 245.845 616.837 246.595 613.775 245.574 611.043 L 242.853 603.752 C 241.639 600.501 238.238 598.527 234.715 599.027 Z " fill="rgb(247,176,177)"/><path d=" M 235.548 668.274 C 235.441 666.02 233.588 664.171 231.351 664.088 L 235.035 662.36 C 237.006 661.434 238.068 659.275 237.64 657.066 L 236.368 650.506 C 235.868 647.92 233.496 646.066 230.921 646.243 L 230.921 646.243 L 234.025 644.046 C 235.747 642.828 236.502 640.634 235.927 638.518 L 233.638 630.106 C 232.923 627.478 230.381 625.724 227.744 626.038 L 231.406 622.571 C 233.561 620.528 234.242 617.33 233.142 614.433 L 230.204 606.713 C 228.895 603.267 225.404 601.113 221.851 601.555 L 217.322 602.122 L 189.878 610.733 C 182.69 612.989 175.542 607.178 176.56 599.909 L 178.75 584.285 C 179.429 579.43 178.353 574.5 175.701 570.335 C 175.001 569.238 174.255 568.065 173.495 566.873 C 168.89 559.641 159.401 556.955 151.517 560.657 C 151.205 560.804 150.925 560.989 150.666 561.194 C 152.547 561.429 154.393 561.911 156.127 562.659 C 160.439 564.522 164.018 568.031 166.009 572.188 C 162.878 574.826 159.034 576.621 154.982 577.458 L 155.094 577.686 L 155.096 577.686 C 157.82 588.273 156.767 599.444 152.11 609.375 L 150.543 612.714 C 148.89 616.239 147.774 619.978 147.227 623.815 C 145.335 637.074 136.745 648.538 124.338 654.363 L -114.889 764.07 L -86.55 821.001 L 149.759 693.875 C 158.879 689.592 169.304 688.725 179.039 691.438 C 188.776 694.15 199.199 693.283 208.319 689.001 L 235.617 676.184 C 235.786 675.696 235.875 675.173 235.85 674.629 L 235.548 668.274 Z " fill="rgb(248,191,189)"/></g><g><path d=" M 841.329 556.188 C 843.32 552.031 846.897 548.522 851.213 546.659 C 852.945 545.911 854.793 545.429 856.674 545.194 C 858.227 546.417 858.78 548.554 857.873 550.378 L 852.358 561.458 C 848.306 560.621 844.46 558.826 841.329 556.188 Z " fill="rgb(151,166,212)"/><path d=" M 772.625 583.027 L 786.396 584.985 L 790.016 586.122 L 785.487 585.555 C 781.935 585.113 778.443 587.267 777.134 590.713 L 774.196 598.433 C 773.096 601.33 773.779 604.528 775.934 606.571 L 779.596 610.038 C 776.959 609.724 774.415 611.478 773.7 614.106 L 771.411 622.518 C 770.836 624.634 771.591 626.828 773.313 628.046 L 776.417 630.243 L 776.417 630.243 C 773.842 630.066 771.472 631.92 770.97 634.506 L 769.7 641.066 C 769.272 643.275 770.334 645.434 772.303 646.36 L 775.987 648.088 C 773.75 648.171 771.898 650.02 771.79 652.274 L 771.488 658.629 C 771.465 659.173 771.552 659.696 771.722 660.184 L 762.826 656.006 C 761.378 655.326 760.471 653.885 760.509 652.32 L 760.655 646.274 C 760.709 644.128 762.499 642.409 764.705 642.379 L 761.023 640.651 C 759.054 639.724 757.952 637.645 758.323 635.552 L 759.426 629.33 C 759.86 626.879 762.16 625.165 764.71 625.392 L 764.71 625.392 L 761.589 623.23 C 759.858 622.03 759.058 619.923 759.58 617.921 L 761.643 609.96 C 762.288 607.473 764.761 605.857 767.377 606.216 L 763.674 602.83 C 761.493 600.837 760.743 597.775 761.764 595.043 L 764.485 587.752 C 765.699 584.501 769.1 582.527 772.625 583.027 Z " fill="rgb(244,147,147)"/><path d=" M 771.79 652.274 C 771.898 650.02 773.75 648.171 775.987 648.088 L 772.303 646.36 C 770.334 645.434 769.272 643.275 769.7 641.066 L 770.97 634.506 C 771.472 631.92 773.842 630.066 776.417 630.243 L 776.417 630.243 L 773.313 628.046 C 771.591 626.828 770.836 624.634 771.411 622.518 L 773.7 614.106 C 774.415 611.478 776.959 609.724 779.596 610.038 L 775.934 606.571 C 773.779 604.528 773.096 601.33 774.196 598.433 L 777.134 590.713 C 778.443 587.267 781.935 585.113 785.487 585.555 L 790.016 586.122 L 817.46 594.733 C 824.648 596.989 831.796 591.178 830.779 583.909 L 828.59 568.285 C 827.909 563.43 828.985 558.5 831.637 554.335 C 832.336 553.238 833.083 552.065 833.843 550.873 C 838.45 543.641 847.937 540.955 855.821 544.657 C 856.133 544.804 856.413 544.989 856.674 545.194 C 854.793 545.429 852.945 545.911 851.213 546.659 C 846.897 548.522 843.32 552.031 841.329 556.188 C 844.46 558.826 848.306 560.621 852.358 561.458 L 852.242 561.686 L 852.242 561.686 C 849.52 572.273 850.571 583.444 855.228 593.375 L 856.795 596.714 C 858.448 600.239 859.564 603.978 860.113 607.815 C 862.005 621.074 870.594 632.538 883.001 638.363 L 1122.228 748.07 L 1093.888 805.001 L 857.579 677.875 C 848.459 673.592 838.034 672.725 828.301 675.438 C 818.564 678.15 808.139 677.283 799.021 673.001 L 771.722 660.184 C 771.552 659.696 771.465 659.173 771.488 658.629 L 771.79 652.274 Z " fill="rgb(245,157,157)"/></g><g><path d=" M 712.28 865.116 C 695.724 887.198 648.755 887.433 648.755 887.433 L 643.946 873.76 L 708.633 850.573 L 712.28 865.116 Z " fill="rgb(247,154,53)"/><path d=" M 732.643 762.193 C 737.452 760.269 743.047 760.025 747.973 761.644 C 749.953 762.297 751.819 763.246 753.522 764.418 C 753.842 766.538 752.646 768.668 750.507 769.487 L 737.522 774.459 C 734.883 770.845 733.151 766.601 732.643 762.193 Z " fill="rgb(243,155,155)"/><path d=" M 656.367 734.093 L 666.014 745.669 L 668.072 749.213 L 664.838 745.473 C 662.302 742.537 657.82 741.75 654.109 743.588 L 645.792 747.712 C 642.676 749.259 640.768 752.344 640.944 755.561 L 641.242 761.025 C 639.348 758.858 635.94 758.432 633.34 760.042 L 625.019 765.195 C 622.926 766.49 621.849 768.815 622.306 771.052 L 623.132 775.084 L 623.132 775.084 C 621.184 773.07 617.837 772.854 615.443 774.582 L 609.37 778.974 C 607.323 780.453 606.525 782.972 607.408 785.15 L 609.061 789.22 C 607.187 787.666 604.265 787.818 602.445 789.568 L 597.313 794.496 C 596.876 794.917 596.545 795.405 596.309 795.923 L 592.316 786.088 C 591.664 784.485 592.038 782.66 593.272 781.423 L 598.043 776.631 C 599.734 774.933 602.505 774.838 604.315 776.416 L 602.662 772.345 C 601.779 770.168 602.487 767.683 604.396 766.255 L 610.072 762.018 C 612.309 760.348 615.492 760.628 617.383 762.664 L 617.383 762.664 L 616.516 758.648 C 616.037 756.421 617.011 754.135 618.973 752.889 L 626.764 747.94 C 629.2 746.392 632.444 746.878 634.285 749.066 L 633.889 743.639 C 633.658 740.443 635.403 737.421 638.331 735.947 L 646.143 732.017 C 649.626 730.266 653.898 731.133 656.367 734.093 Z " fill="rgb(202,115,115)"/><path d=" M 602.445 789.568 C 604.265 787.818 607.187 787.666 609.061 789.22 L 607.408 785.15 C 606.525 782.972 607.323 780.453 609.37 778.974 L 615.443 774.582 C 617.837 772.854 621.184 773.07 623.132 775.084 L 623.132 775.084 L 622.306 771.052 C 621.849 768.815 622.926 766.49 625.019 765.195 L 633.34 760.042 C 635.94 758.432 639.348 758.858 641.242 761.025 L 640.944 755.561 C 640.768 752.344 642.676 749.259 645.792 747.712 L 654.109 743.588 C 657.82 741.75 662.302 742.537 664.838 745.473 L 668.072 749.213 L 683.674 776.095 C 687.763 783.136 698.018 783.616 702.783 776.989 L 713.024 762.748 C 716.208 758.325 720.868 755.114 726.221 753.665 C 727.628 753.282 729.135 752.873 730.668 752.459 C 739.959 749.943 749.707 754.651 753.246 763.365 C 753.385 763.713 753.47 764.064 753.522 764.418 C 751.819 763.246 749.953 762.297 747.973 761.644 C 743.047 760.025 737.452 760.269 732.643 762.193 C 733.151 766.601 734.883 770.845 737.522 774.459 L 737.253 774.563 L 737.253 774.563 C 726.907 781.16 719.17 790.969 715.306 802.39 L 714.005 806.23 C 712.634 810.283 710.665 814.122 708.158 817.626 C 699.494 829.734 697.635 845.249 703.204 858.966 L 788.261 1027.111 L 724.429 1083.662 L 652.234 872.523 C 648.141 862.442 640.366 854.18 630.397 849.313 C 620.425 844.449 612.652 836.185 608.559 826.104 L 596.309 795.923 C 596.545 795.405 596.876 794.917 597.313 794.496 L 602.445 789.568 Z " fill="rgb(221,132,129)"/><path d=" M 712.28 865.116 C 689.479 864.751 666.072 873.023 648.755 887.433 L 643.946 873.76 C 662.997 860.838 685.506 852.769 708.633 850.573 L 712.28 865.116 Z " fill="rgb(252,185,48)"/></g><g><path d=" M 672.279 119.83 C 668.843 116.037 666.789 110.977 666.767 105.926 C 666.76 103.897 667.08 101.874 667.667 99.928 C 669.627 98.948 672.089 99.353 673.581 101.053 L 682.641 111.368 C 679.976 114.966 676.405 117.935 672.279 119.83 Z " fill="rgb(250,211,212)"/><path d=" M 669.668 199.022 L 677.81 186.402 L 680.596 183.361 L 678.002 187.548 C 675.966 190.83 676.654 195.205 679.649 198.015 L 686.364 204.316 C 688.88 206.679 692.504 207.428 695.581 206.223 L 700.807 204.177 C 699.309 206.619 700.001 209.888 702.413 211.753 L 710.132 217.724 C 712.074 219.227 714.686 219.463 716.717 218.315 L 720.375 216.25 L 720.375 216.25 C 719.047 218.692 719.923 221.838 722.384 223.475 L 728.631 227.63 C 730.735 229.028 733.447 228.946 735.282 227.426 L 738.711 224.588 C 737.804 226.812 738.902 229.449 741.195 230.553 L 747.66 233.666 C 748.213 233.932 748.795 234.078 749.376 234.129 L 741.095 240.987 C 739.744 242.105 737.847 242.354 736.239 241.622 L 730.027 238.796 C 727.823 237.794 726.831 235.278 727.78 233.102 L 724.353 235.943 C 722.517 237.461 719.871 237.617 717.858 236.325 L 711.89 232.486 C 709.538 230.974 708.777 227.96 710.145 225.563 L 710.145 225.563 L 706.515 227.662 C 704.503 228.827 701.959 228.672 700.111 227.276 L 692.761 221.722 C 690.463 219.987 689.885 216.85 691.419 214.448 L 686.261 216.573 C 683.224 217.824 679.712 217.201 677.328 214.989 L 670.965 209.09 C 668.129 206.458 667.587 202.252 669.668 199.022 Z " fill="rgb(247,176,177)"/><path d=" M 741.195 230.553 C 738.902 229.449 737.804 226.812 738.711 224.588 L 735.282 227.426 C 733.447 228.946 730.735 229.028 728.631 227.63 L 722.384 223.475 C 719.923 221.838 719.047 218.692 720.375 216.25 L 720.375 216.25 L 716.717 218.315 C 714.686 219.463 712.074 219.227 710.132 217.724 L 702.413 211.753 C 700.001 209.888 699.309 206.619 700.807 204.177 L 695.581 206.223 C 692.504 207.428 688.88 206.679 686.364 204.316 L 679.649 198.015 C 676.654 195.205 675.966 190.83 678.002 187.548 L 680.596 183.361 L 701.708 160.304 C 707.24 154.263 704.378 144.686 696.379 142.459 L 679.185 137.673 C 673.843 136.186 669.204 132.946 666.055 128.5 C 665.226 127.33 664.339 126.079 663.438 124.805 C 657.971 117.087 659.393 106.603 666.733 100.524 C 667.025 100.283 667.34 100.092 667.667 99.928 C 667.08 101.874 666.76 103.897 666.767 105.926 C 666.789 110.977 668.843 116.037 672.279 119.83 C 676.405 117.935 679.976 114.966 682.641 111.368 L 682.827 111.581 L 682.827 111.581 C 692.611 118.944 704.675 122.869 717.051 122.712 L 721.213 122.66 C 725.605 122.603 729.982 123.168 734.209 124.333 C 748.814 128.361 764.526 125.034 776.078 115.466 L 938.498 -37.674 L 1048.266 -24.333 L 805.826 157.889 C 797.333 164.921 791.811 174.745 790.308 185.483 C 788.807 196.222 783.282 206.046 774.792 213.078 L 749.376 234.129 C 748.795 234.078 748.213 233.932 747.66 233.666 L 741.195 230.553 Z " fill="rgb(248,191,189)"/><path d=" M 758.828 116.099 L 816.258 164.641 L 860.564 132.755 L 805.454 77.381 L 758.828 116.099 Z " fill="rgb(249,235,215)"/><path d=" M 805.454 77.381 L 805.454 77.381 C 804.198 60.825 810.943 44.643 823.701 33.596 L 924.948 -51.747 L 1065.854 -14.025 L 902.849 119.351 C 893.701 127.008 882.213 131.527 870.157 132.211 L 860.564 132.755 L 805.454 77.381 Z " fill="rgb(82,97,170)"/><path d=" M 770.601 106.322 L 827.016 156.9 L 833.172 152.469 L 778.143 100.059 L 770.601 106.322 Z " fill="rgb(82,97,170)"/><path d=" M 793.444 87.352 L 785.849 93.659 L 843.31 145.173 L 849.489 140.727 L 793.444 87.352 Z " fill="rgb(82,97,170)"/><path d=" M 819.596 90.58 L 819.596 90.581 L 819.596 90.58 C 827.915 77.899 836.561 55.567 838.908 40.702 L 838.908 40.702 L 838.908 40.702 C 830.587 53.385 821.94 75.716 819.596 90.58 Z " fill="rgb(65,88,165)"/><path d=" M 832.377 93.394 L 832.377 93.394 L 832.377 93.394 C 845.713 92.033 862.566 87.469 878.459 80.673 C 894.369 73.917 909.24 64.965 919.302 56.356 L 919.302 56.356 C 906.509 60.29 890.751 66.658 875.124 73.294 C 859.515 79.967 844.02 86.916 832.377 93.394 Z " fill="rgb(65,88,165)"/><path d=" M 847.194 103.165 L 847.194 103.165 L 847.194 103.165 C 852.569 106.19 860.232 108.867 868.164 110.29 C 876.093 111.738 884.235 111.923 890.368 110.981 L 890.368 110.981 L 890.368 110.981 C 884.359 109.435 876.611 108.033 868.869 106.62 C 861.122 105.229 853.374 103.826 847.194 103.165 Z " fill="rgb(65,88,165)"/></g></g></svg>